<svg width="28" height="28" viewBox="0 0 28 28" fill="none" xmlns="http://www.w3.org/2000/svg">
<path d="M1.49376 8.7058C3.48543 10.6975 6.71457 10.6975 8.70624 8.7058C8.95099 8.46106 9.16566 8.19763 9.35025 7.92011C10.264 9.29409 11.8262 10.1996 13.6 10.1996C15.374 10.1996 16.9365 9.29385 17.8501 7.91956C18.0348 8.19731 18.2496 8.46094 18.4945 8.70586C20.4862 10.6975 23.7153 10.6975 25.707 8.70586C27.6987 6.71419 27.6987 3.48504 25.707 1.49337L25.2095 0.995837C24.5719 0.358213 23.7071 0 22.8053 0H4.39539C3.49365 0 2.62885 0.358213 1.99123 0.995836L1.49376 1.49331C-0.497918 3.48498 -0.497918 6.71413 1.49376 8.7058Z" fill="#A685FA"/>
<path d="M1.7 11.9548C4.12759 13.1591 7.06169 12.9947 9.35096 11.4615C10.5655 12.2741 12.027 12.7496 13.6 12.7496C15.1731 12.7496 16.6348 12.274 17.8494 11.4613C20.1385 12.9946 23.0724 13.1592 25.5 11.9552V24.65H25.925C26.6292 24.65 27.2 25.2208 27.2 25.925C27.2 26.6292 26.6292 27.2 25.925 27.2H18.275C17.5708 27.2 17 26.6292 17 25.925V19.975C17 19.2708 16.4292 18.7 15.725 18.7H11.475C10.7708 18.7 10.2 19.2708 10.2 19.975V25.925C10.2 26.6292 9.62916 27.2 8.925 27.2H1.275C0.570837 27.2 0 26.6292 0 25.925C0 25.2208 0.570837 24.65 1.275 24.65H1.7V11.9548Z" fill="#A685FA"/>
</svg>
