<svg width="31" height="28" viewBox="0 0 31 28" fill="none" xmlns="http://www.w3.org/2000/svg">
<path fill-rule="evenodd" clip-rule="evenodd" d="M0 1.275C0 0.570837 0.570837 0 1.275 0H19.125C19.8292 0 20.4 0.570837 20.4 1.275C20.4 1.97916 19.8292 2.55 19.125 2.55H18.7V25.925C18.7 26.6292 18.1292 27.2 17.425 27.2H14.875C14.1708 27.2 13.6 26.6292 13.6 25.925V21.675C13.6 20.9708 13.0292 20.4 12.325 20.4H8.075C7.37084 20.4 6.8 20.9708 6.8 21.675V25.925C6.8 26.6292 6.22916 27.2 5.525 27.2H1.275C0.570837 27.2 0 26.6292 0 25.925C0 25.2208 0.570837 24.65 1.275 24.65H1.7V2.55H1.275C0.570837 2.55 0 1.97916 0 1.275ZM5.1 5.95C5.1 5.48056 5.48056 5.1 5.95 5.1H7.65C8.11944 5.1 8.5 5.48056 8.5 5.95V7.65C8.5 8.11944 8.11944 8.5 7.65 8.5H5.95C5.48056 8.5 5.1 8.11944 5.1 7.65V5.95ZM5.95 11.9C5.48056 11.9 5.1 12.2806 5.1 12.75V14.45C5.1 14.9194 5.48056 15.3 5.95 15.3H7.65C8.11944 15.3 8.5 14.9194 8.5 14.45V12.75C8.5 12.2806 8.11944 11.9 7.65 11.9H5.95ZM11.9 5.95C11.9 5.48056 12.2806 5.1 12.75 5.1H14.45C14.9194 5.1 15.3 5.48056 15.3 5.95V7.65C15.3 8.11944 14.9194 8.5 14.45 8.5H12.75C12.2806 8.5 11.9 8.11944 11.9 7.65V5.95ZM12.75 11.9C12.2806 11.9 11.9 12.2806 11.9 12.75V14.45C11.9 14.9194 12.2806 15.3 12.75 15.3H14.45C14.9194 15.3 15.3 14.9194 15.3 14.45V12.75C15.3 12.2806 14.9194 11.9 14.45 11.9H12.75Z" fill="#A685FA"/>
<path fill-rule="evenodd" clip-rule="evenodd" d="M22.525 6.8C21.8208 6.8 21.25 7.37084 21.25 8.075V25.5C21.25 26.4389 22.0111 27.2 22.95 27.2H29.325C30.0292 27.2 30.6 26.6292 30.6 25.925C30.6 25.2208 30.0292 24.65 29.325 24.65H28.9V9.35H29.325C30.0292 9.35 30.6 8.77916 30.6 8.075C30.6 7.37084 30.0292 6.8 29.325 6.8H22.525ZM23.375 12.75C23.375 12.2806 23.7556 11.9 24.225 11.9H25.925C26.3944 11.9 26.775 12.2806 26.775 12.75V14.45C26.775 14.9194 26.3944 15.3 25.925 15.3H24.225C23.7556 15.3 23.375 14.9194 23.375 14.45V12.75ZM24.225 18.7C23.7556 18.7 23.375 19.0806 23.375 19.55V21.25C23.375 21.7194 23.7556 22.1 24.225 22.1H25.925C26.3944 22.1 26.775 21.7194 26.775 21.25V19.55C26.775 19.0806 26.3944 18.7 25.925 18.7H24.225Z" fill="#A685FA"/>
</svg>
