<svg width="169" height="49" viewBox="0 0 169 49" fill="none" xmlns="http://www.w3.org/2000/svg">
<path d="M24 48.5C10.7467 48.5 0 37.7533 0 24.5H24V48.5Z" fill="#703BF7"/>
<path d="M0 0.5C13.2533 0.5 24 11.2467 24 24.5H0V0.5Z" fill="#703BF7"/>
<path d="M24 48.5C37.2533 48.5 48 37.7533 48 24.5H24V48.5Z" fill="#703BF7"/>
<path d="M48 24.5C48 11.2467 37.2533 0.5 24 0.5V24.5H48Z" fill="#703BF7"/>
<path d="M65.144 21.216C64.36 21.216 63.608 21.32 62.888 21.528C62.168 21.736 61.488 21.976 60.848 22.248L59.792 19.752C60.576 19.4 61.416 19.128 62.312 18.936C63.224 18.728 64.184 18.624 65.192 18.624C66.504 18.624 67.656 18.832 68.648 19.248C69.64 19.648 70.472 20.232 71.144 21C71.832 21.752 72.344 22.664 72.68 23.736C73.032 24.808 73.208 26.008 73.208 27.336C73.208 29.144 72.904 30.72 72.296 32.064C71.704 33.392 70.792 34.424 69.56 35.16C68.344 35.88 66.8 36.24 64.928 36.24C63.936 36.24 63.064 36.176 62.312 36.048C61.56 35.92 60.8 35.712 60.032 35.424V32.808C60.864 33.064 61.648 33.272 62.384 33.432C63.136 33.576 63.896 33.648 64.664 33.648C65.512 33.648 66.256 33.536 66.896 33.312C67.552 33.088 68.096 32.768 68.528 32.352C68.976 31.92 69.32 31.384 69.56 30.744C69.8 30.104 69.936 29.36 69.968 28.512H62.192V25.944H69.944C69.912 25.192 69.768 24.528 69.512 23.952C69.272 23.376 68.944 22.888 68.528 22.488C68.112 22.072 67.616 21.76 67.04 21.552C66.48 21.328 65.848 21.216 65.144 21.216ZM87.3579 36H84.3339V25.32H80.8539C80.6939 27.288 80.4939 28.96 80.2539 30.336C80.0139 31.712 79.7179 32.84 79.3659 33.72C79.0139 34.584 78.5739 35.216 78.0459 35.616C77.5339 36.016 76.9099 36.216 76.1739 36.216C75.8379 36.216 75.5259 36.192 75.2379 36.144C74.9499 36.096 74.7019 36.016 74.4939 35.904V33.528C74.6379 33.576 74.7899 33.624 74.9499 33.672C75.1099 33.704 75.2779 33.72 75.4539 33.72C75.7259 33.72 75.9739 33.616 76.1979 33.408C76.4379 33.184 76.6539 32.824 76.8459 32.328C77.0539 31.816 77.2459 31.144 77.4219 30.312C77.5979 29.48 77.7499 28.464 77.8779 27.264C78.0219 26.048 78.1499 24.624 78.2619 22.992H87.3579V36ZM94.1527 29.184C94.1527 29.408 94.1367 29.696 94.1047 30.048C94.0887 30.384 94.0727 30.744 94.0567 31.128C94.0407 31.496 94.0167 31.832 93.9847 32.136C93.9687 32.424 93.9527 32.64 93.9367 32.784L100.297 22.992H103.945V36H101.041V29.88C101.041 29.512 101.049 29.088 101.065 28.608C101.097 28.128 101.129 27.672 101.161 27.24C101.193 26.792 101.217 26.456 101.233 26.232L94.8967 36H91.2487V22.992H94.1527V29.184ZM117.946 25.32H113.674V36H110.674V25.32H106.426V22.992H117.946V25.32ZM133.412 18.864V33.384H135.668V40.8H132.692V36H121.58V40.8H118.604V33.384H119.924C120.42 32.456 120.892 31.456 121.34 30.384C121.804 29.296 122.22 28.144 122.588 26.928C122.972 25.712 123.3 24.432 123.572 23.088C123.86 21.728 124.076 20.32 124.22 18.864H133.412ZM126.716 21.48C126.62 22.344 126.46 23.288 126.236 24.312C126.012 25.336 125.74 26.384 125.42 27.456C125.116 28.528 124.772 29.576 124.388 30.6C124.004 31.608 123.596 32.536 123.164 33.384H130.364V21.48H126.716ZM149.716 29.472C149.716 30.56 149.572 31.52 149.284 32.352C148.996 33.184 148.58 33.896 148.036 34.488C147.508 35.064 146.852 35.504 146.068 35.808C145.3 36.096 144.444 36.24 143.5 36.24C142.604 36.24 141.78 36.096 141.028 35.808C140.276 35.504 139.62 35.064 139.06 34.488C138.516 33.896 138.092 33.184 137.788 32.352C137.484 31.52 137.332 30.56 137.332 29.472C137.332 28.032 137.58 26.816 138.076 25.824C138.572 24.816 139.284 24.056 140.212 23.544C141.156 23.016 142.268 22.752 143.548 22.752C144.764 22.752 145.828 23.016 146.74 23.544C147.668 24.056 148.396 24.816 148.924 25.824C149.452 26.816 149.716 28.032 149.716 29.472ZM140.428 29.472C140.428 30.384 140.532 31.168 140.74 31.824C140.964 32.464 141.3 32.952 141.748 33.288C142.212 33.624 142.804 33.792 143.524 33.792C144.26 33.792 144.852 33.624 145.3 33.288C145.764 32.952 146.1 32.464 146.308 31.824C146.516 31.168 146.62 30.384 146.62 29.472C146.62 28.544 146.508 27.768 146.284 27.144C146.076 26.504 145.74 26.024 145.276 25.704C144.828 25.368 144.244 25.2 143.524 25.2C142.436 25.2 141.644 25.568 141.148 26.304C140.668 27.04 140.428 28.096 140.428 29.472ZM168.322 22.992V36H165.538V28.896C165.538 28.368 165.546 27.848 165.562 27.336C165.594 26.824 165.626 26.336 165.658 25.872H165.586L161.746 36H159.418L155.578 25.872H155.506C155.554 26.336 155.586 26.824 155.602 27.336C155.618 27.848 155.626 28.4 155.626 28.992V36H152.842V22.992H157.042L160.618 32.424L164.218 22.992H168.322Z" fill="white"/>
</svg>
