<svg width="24" height="29" viewBox="0 0 24 29" fill="none" xmlns="http://www.w3.org/2000/svg">
<path fill-rule="evenodd" clip-rule="evenodd" d="M11.0355 28.4765C11.0783 28.5013 11.1119 28.5204 11.1357 28.5338L11.1753 28.5559C11.491 28.7292 11.8827 28.7279 12.1987 28.5564L12.2393 28.5338C12.2631 28.5204 12.2967 28.5013 12.3395 28.4765C12.4251 28.4269 12.5474 28.3546 12.7011 28.2599C13.0085 28.0707 13.4424 27.7916 13.9607 27.4254C14.9955 26.6944 16.3763 25.6097 17.7601 24.1929C20.5143 21.373 23.375 17.1362 23.375 11.6875C23.375 5.23267 18.1423 0 11.6875 0C5.23267 0 0 5.23267 0 11.6875C0 17.1362 2.86071 21.373 5.6149 24.1929C6.99869 25.6097 8.37946 26.6944 9.4143 27.4254C9.9326 27.7916 10.3665 28.0707 10.6739 28.2599C10.8276 28.3546 10.9499 28.4269 11.0355 28.4765ZM11.6875 15.9375C14.0347 15.9375 15.9375 14.0347 15.9375 11.6875C15.9375 9.34029 14.0347 7.4375 11.6875 7.4375C9.34029 7.4375 7.4375 9.34029 7.4375 11.6875C7.4375 14.0347 9.34029 15.9375 11.6875 15.9375Z" fill="#A685FA"/>
</svg>
