<svg width="32" height="27" viewBox="0 0 32 27" fill="none" xmlns="http://www.w3.org/2000/svg">
<path d="M15.369 0.088875C15.6402 -0.029625 15.9486 -0.029625 16.2198 0.088875C21.4881 2.39071 26.4812 5.20457 31.1362 8.46742C31.473 8.70355 31.6433 9.11292 31.5733 9.5183C31.5033 9.92368 31.2056 10.2522 30.809 10.3617C29.8387 10.6295 28.8768 10.918 27.9235 11.2254C24.0545 12.4732 20.3301 14.0432 16.7819 15.9038L16.7773 15.9062C16.6164 15.9906 16.4559 16.0756 16.2958 16.1612C15.9829 16.3283 15.6072 16.3283 15.2943 16.1612C15.1327 16.0748 14.9706 15.989 14.8082 15.9038C13.0537 14.9838 11.2561 14.1348 9.41931 13.3607V13.0438C9.41931 12.8577 9.51482 12.6926 9.6626 12.6031C11.7949 11.3113 13.9943 10.1194 16.2543 9.03381C16.7833 8.77974 17.0061 8.14498 16.7521 7.61603C16.498 7.08708 15.8632 6.86425 15.3343 7.11832C13.012 8.23377 10.7522 9.45842 8.56151 10.7856C7.91922 11.1747 7.48744 11.8116 7.34541 12.5251C6.13427 12.0592 4.90721 11.6252 3.66523 11.2247C2.71205 10.9173 1.7501 10.6295 0.779833 10.3617C0.383279 10.2522 0.0855473 9.92366 0.0155347 9.51828C-0.054478 9.1129 0.115812 8.70353 0.45268 8.46741C5.10762 5.20456 10.1007 2.3907 15.369 0.088875Z" fill="#A685FA"/>
<path d="M17.2972 18.0354C20.7523 16.1893 24.3823 14.6287 28.1559 13.3847C28.3461 15.389 28.4675 17.4133 28.5178 19.455C28.5286 19.893 28.2693 20.2928 27.865 20.4616C23.8258 22.148 19.9839 24.2129 16.3836 26.6123C16.0267 26.85 15.562 26.85 15.2051 26.6123C11.6048 24.2129 7.76285 22.148 3.72374 20.4616C3.31937 20.2928 3.06012 19.893 3.07092 19.455C3.12122 17.4131 3.24266 15.3887 3.43287 13.3843C4.73761 13.8143 6.02519 14.2823 7.29431 14.7868V16.5865C6.65915 16.9539 6.23181 17.6407 6.23181 18.4272C6.23181 19.1289 6.57192 19.7512 7.09629 20.1382C6.96948 20.6774 6.7818 21.205 6.53323 21.7103C7.17455 22.013 7.81038 22.3254 8.44054 22.6474C8.79943 21.9175 9.05965 21.1513 9.22118 20.3691C9.96401 20.0379 10.4818 19.293 10.4818 18.4272C10.4818 17.6407 10.0545 16.9539 9.41931 16.5865V15.6731C11.0788 16.3982 12.7043 17.1866 14.2929 18.0354C15.2316 18.5369 16.3586 18.5369 17.2972 18.0354Z" fill="#A685FA"/>
<path d="M5.1158 23.6863C5.70957 23.0925 6.18226 22.4237 6.53323 21.7103C7.17455 22.013 7.81038 22.3254 8.44054 22.6474C7.98925 23.5652 7.38163 24.4257 6.6184 25.1889C6.20347 25.6038 5.53073 25.6038 5.1158 25.1889C4.70086 24.774 4.70086 24.1012 5.1158 23.6863Z" fill="#A685FA"/>
</svg>
