<svg width="28" height="28" viewBox="0 0 28 28" fill="none" xmlns="http://www.w3.org/2000/svg">
<path d="M13.8125 0C14.3993 0 14.875 0.475697 14.875 1.0625V4.25C14.875 4.8368 14.3993 5.3125 13.8125 5.3125C13.2257 5.3125 12.75 4.8368 12.75 4.25V1.0625C12.75 0.475697 13.2257 0 13.8125 0Z" fill="#A685FA"/>
<path d="M7.4375 13.8125C7.4375 10.2917 10.2917 7.4375 13.8125 7.4375C17.3333 7.4375 20.1875 10.2917 20.1875 13.8125C20.1875 17.3333 17.3333 20.1875 13.8125 20.1875C10.2917 20.1875 7.4375 17.3333 7.4375 13.8125Z" fill="#A685FA"/>
<path d="M23.5795 5.54815C23.9944 5.13321 23.9944 4.46048 23.5795 4.04554C23.1646 3.63061 22.4918 3.63061 22.0769 4.04554L19.823 6.29945C19.408 6.71438 19.408 7.38712 19.823 7.80205C20.2379 8.21698 20.9107 8.21698 21.3256 7.80205L23.5795 5.54815Z" fill="#A685FA"/>
<path d="M27.625 13.8125C27.625 14.3993 27.1493 14.875 26.5625 14.875H23.375C22.7882 14.875 22.3125 14.3993 22.3125 13.8125C22.3125 13.2257 22.7882 12.75 23.375 12.75H26.5625C27.1493 12.75 27.625 13.2257 27.625 13.8125Z" fill="#A685FA"/>
<path d="M22.0767 23.5794C22.4917 23.9943 23.1644 23.9943 23.5793 23.5794C23.9943 23.1644 23.9943 22.4917 23.5793 22.0768L21.3254 19.8229C20.9105 19.4079 20.2378 19.4079 19.8228 19.8229C19.4079 20.2378 19.4079 20.9105 19.8228 21.3255L22.0767 23.5794Z" fill="#A685FA"/>
<path d="M13.8125 22.3125C14.3993 22.3125 14.875 22.7882 14.875 23.375V26.5625C14.875 27.1493 14.3993 27.625 13.8125 27.625C13.2257 27.625 12.75 27.1493 12.75 26.5625V23.375C12.75 22.7882 13.2257 22.3125 13.8125 22.3125Z" fill="#A685FA"/>
<path d="M7.8023 21.3255C8.21723 20.9105 8.21723 20.2378 7.8023 19.8229C7.38736 19.4079 6.71463 19.4079 6.29969 19.8229L4.04579 22.0768C3.63086 22.4917 3.63086 23.1644 4.04579 23.5794C4.46072 23.9943 5.13346 23.9943 5.54839 23.5794L7.8023 21.3255Z" fill="#A685FA"/>
<path d="M5.3125 13.8125C5.3125 14.3993 4.8368 14.875 4.25 14.875H1.0625C0.475697 14.875 0 14.3993 0 13.8125C6.33299e-08 13.2257 0.475697 12.75 1.0625 12.75H4.25C4.8368 12.75 5.3125 13.2257 5.3125 13.8125Z" fill="#A685FA"/>
<path d="M6.29953 7.80204C6.71447 8.21697 7.3872 8.21697 7.80214 7.80204C8.21707 7.3871 8.21707 6.71437 7.80214 6.29943L5.54823 4.04553C5.1333 3.6306 4.46056 3.6306 4.04563 4.04553C3.6307 4.46046 3.6307 5.1332 4.04563 5.54813L6.29953 7.80204Z" fill="#A685FA"/>
</svg>
