<svg width="30" height="27" viewBox="0 0 30 27" fill="none" xmlns="http://www.w3.org/2000/svg">
<path fill-rule="evenodd" clip-rule="evenodd" d="M9.5625 5.3125C9.5625 2.37849 11.941 0 14.875 0C17.809 0 20.1875 2.37849 20.1875 5.3125C20.1875 8.24651 17.809 10.625 14.875 10.625C11.941 10.625 9.5625 8.24651 9.5625 5.3125Z" fill="#A685FA"/>
<path fill-rule="evenodd" clip-rule="evenodd" d="M20.1875 9.5625C20.1875 7.21529 22.0903 5.3125 24.4375 5.3125C26.7847 5.3125 28.6875 7.21529 28.6875 9.5625C28.6875 11.9097 26.7847 13.8125 24.4375 13.8125C22.0903 13.8125 20.1875 11.9097 20.1875 9.5625Z" fill="#A685FA"/>
<path fill-rule="evenodd" clip-rule="evenodd" d="M1.0625 9.5625C1.0625 7.21529 2.96529 5.3125 5.3125 5.3125C7.65971 5.3125 9.5625 7.21529 9.5625 9.5625C9.5625 11.9097 7.65971 13.8125 5.3125 13.8125C2.96529 13.8125 1.0625 11.9097 1.0625 9.5625Z" fill="#A685FA"/>
<path fill-rule="evenodd" clip-rule="evenodd" d="M6.81397 17.1665C8.5111 14.5129 11.4868 12.75 14.875 12.75C18.2636 12.75 21.2396 14.5133 22.9367 17.1675C24.1099 19.0024 24.6175 21.2149 24.3794 23.3721C24.3422 23.7092 24.1462 24.0083 23.8521 24.1771C21.2067 25.695 18.1405 26.5625 14.875 26.5625C11.6095 26.5625 8.54333 25.695 5.89793 24.1771C5.60375 24.0083 5.40784 23.7092 5.37063 23.3721C5.13249 21.2145 5.64033 19.0016 6.81397 17.1665Z" fill="#A685FA"/>
<path d="M5.0749 15.9427C5.05784 15.9689 5.04089 15.9952 5.02403 16.0216C3.6563 18.1601 3.03036 20.707 3.22251 23.2178C2.36111 23.0869 1.52532 22.8765 0.723106 22.5939L0.560249 22.5366C0.263158 22.432 0.0555722 22.1622 0.0305872 21.8482L0.0168911 21.6761C0.00569095 21.5353 0 21.3932 0 21.25C0 18.3956 2.25115 16.067 5.0749 15.9427Z" fill="#A685FA"/>
<path d="M26.528 23.2177C26.7201 20.7074 26.0945 18.1611 24.7272 16.0228C24.7101 15.996 24.6929 15.9693 24.6756 15.9427C27.4991 16.0673 29.75 18.3958 29.75 21.25C29.75 21.3932 29.7443 21.5353 29.7331 21.6761L29.7194 21.8482C29.6944 22.1622 29.4868 22.432 29.1898 22.5366L29.0269 22.5939C28.2248 22.8764 27.3892 23.0868 26.528 23.2177Z" fill="#A685FA"/>
</svg>
