<svg width="904" height="803" viewBox="0 0 904 803" fill="none" xmlns="http://www.w3.org/2000/svg">
<path d="M152.406 639.073C137.7 642.846 199.487 613.669 155.289 606.085C143.738 604.057 124.474 613.669 111.169 598.464C97.9627 583.241 78.8149 596.17 74.4321 610.01C70.0104 623.831 -9.36626 626.371 0.918622 635.224C11.184 644.116 36.195 691.057 46.4993 680.914C56.8037 670.771 67.6535 641.595 77.6656 655.548C87.6778 669.501 90.6386 698.678 55.3428 726.604C20.0664 754.53 72.9907 738.017 65.6082 771.005C58.2841 803.992 95.0798 801.471 100.924 802.741C106.826 803.992 140.622 784.958 146.524 772.313C152.426 759.611 187.663 669.52 183.261 661.899C178.878 654.297 167.074 635.224 152.406 639.073ZM845 8.45966C845 8.45966 818.567 -10.5746 812.645 8.45966C806.782 27.456 846.461 31.3045 842.097 46.5281C837.675 61.7517 797.938 64.3111 796.458 36.3475C795.036 8.45967 780.329 33.826 780.329 54.1305C780.329 74.4539 733.268 56.6899 747.975 80.786C762.682 104.882 723.003 132.808 745.053 137.889C767.123 142.97 737.69 239.392 723.003 249.535C708.238 259.715 718.562 278.712 692.09 286.333C665.599 293.954 637.666 349.768 602.428 358.678C567.113 367.57 558.27 384.007 553.906 367.57C549.446 351.057 522.974 353.578 546.543 342.165C570.054 330.715 586.222 307.946 561.211 313.026C536.219 318.069 512.708 340.876 521.493 353.578C530.376 366.281 526.071 390.377 506.144 403.079C486.197 415.781 455.382 433.507 470.049 446.209C484.756 458.911 465.628 486.799 447.999 476.637C430.332 466.495 412.723 439.877 395.056 452.541C377.388 465.206 330.385 475.386 305.355 471.576C280.383 467.803 243.568 456.352 239.205 472.865C234.783 489.302 200.286 527.408 183.67 531.219C167.093 535.029 154.919 550.253 136.258 554.026C122.662 556.794 96.5602 566.728 114.169 580.681C131.817 594.635 167.834 562.898 183.651 580.681C199.506 598.464 212.733 550.253 218.576 561.647C224.439 573.098 265.618 563.05 295.051 553.495C324.483 543.864 355.318 522.289 384.771 529.911C414.184 537.532 437.675 544.982 421.508 556.49C405.321 567.96 393.556 594.635 406.782 598.445C420.028 602.256 439.156 631.433 456.804 625.063C474.452 618.731 496.502 562.898 522.954 564.187C549.407 565.439 530.356 537.532 512.689 535.01C495.041 532.451 534.739 486.761 545.043 508.355C555.309 529.911 612.674 546.385 625.881 538.783C639.146 531.2 655.314 501.871 674.461 502.573C693.531 503.274 645.029 555.258 674.461 541.342C703.836 527.389 702.355 477.908 725.925 493.131C749.455 508.355 755.318 447.442 758.24 472.846C761.201 498.174 740.573 518.498 758.24 512.128C775.908 505.795 817.086 463.954 808.243 438.55C799.399 413.184 793.556 373.826 821.508 359.873C849.441 345.957 812.645 249.497 839.136 249.497C865.589 249.497 865.589 261.232 867.089 233.799C868.55 206.366 878.854 193.702 899.404 172.109C920.013 150.515 864.128 82.0183 856.804 70.6053C849.421 59.1734 872.932 21.1239 845 8.45966Z" fill="#333333"/>
</svg>
