<svg width="955" height="1011" viewBox="0 0 955 1011" fill="none" xmlns="http://www.w3.org/2000/svg">
<path d="M145.723 893.476C133.295 895.688 107.506 883.363 97.2561 899.79C86.9481 916.255 73.7421 906.444 66.4293 916.558C59.0581 926.671 41.4566 897.578 29.6704 916.558C17.9426 935.537 -11.4061 955.764 4.73666 967.143C20.8794 978.561 -1.15643 986.161 12.069 998.788C25.3138 1011.45 51.7063 1016.52 56.1796 998.788C60.5556 981.094 78.1765 941.605 98.7343 951.869C119.292 962.134 129.522 967.711 136.893 957.956C144.265 948.202 158.929 933.004 169.198 930.49C179.448 927.919 173.633 888.372 145.723 893.476ZM918.029 185.292C925.361 178.94 919.487 165.027 907.721 154.914C895.993 144.801 918.029 118.26 928.317 101.776C938.567 85.3489 888.68 139.734 871.04 133.421C853.419 127.069 846.028 119.489 819.635 116.956C793.224 114.441 727.135 51.1901 700.724 15.7459C674.273 -19.6605 646.363 13.2317 656.671 30.9255C666.921 48.657 675.731 76.4831 666.921 95.4623C658.091 114.441 671.375 128.354 646.344 135.935C621.41 143.496 646.344 156.199 646.344 183.08C646.344 209.961 622.869 202.986 600.872 191.568C578.816 180.226 577.358 180.226 572.457 191.568C567.672 202.986 584.671 210.585 572.457 218.184C560.301 225.746 537.74 234.611 527.393 253.591C517.143 272.57 533.325 288.997 552.405 292.797C571.465 296.596 527.393 324.441 542.116 342.154C556.781 359.848 572.943 334.555 580.314 319.375C587.666 304.195 605.267 321.889 615.575 319.375C625.825 316.861 619.582 305.708 606.745 292.797C602.914 288.959 596.068 286.18 582.862 284.271C569.617 282.343 561.195 275.443 564.91 264.971C568.567 254.555 584.69 244.441 596.846 248.865C608.904 253.288 608.048 261.265 609.682 266.256C613.825 278.77 630.201 258.657 650.778 249.791C671.355 240.925 697.767 264.971 719.784 275.122C741.82 285.235 774.125 300.415 774.125 300.415C785.872 311.795 774.125 280.188 782.916 266.256C791.726 252.343 819.635 206.785 835.778 215.632C851.94 224.46 890.139 228.298 897.451 216.88C904.803 205.5 918.029 208.014 947.377 190.339C976.707 172.627 910.657 191.568 918.029 185.292Z" fill="#A685FA"/>
</svg>
